<svg width="185" height="32" viewBox="0 0 185 32" fill="none" xmlns="http://www.w3.org/2000/svg">
<path d="M11.2 31.576C7.488 31.576 4.72 30.6 2.896 28.648C1.104 26.664 0.144 23.528 0.0160002 19.24L7.36 18.136C7.392 20.6 7.68 22.376 8.224 23.464C8.8 24.52 9.648 25.048 10.768 25.048C12.208 25.048 12.928 24.104 12.928 22.216C12.928 20.712 12.576 19.416 11.872 18.328C11.2 17.24 10.128 16.072 8.656 14.824L5.296 11.896C3.632 10.488 2.336 9 1.408 7.432C0.512 5.832 0.0640001 3.944 0.0640001 1.768C0.0640001 -1.496 1.024 -4.008 2.944 -5.768C4.896 -7.528 7.568 -8.408 10.96 -8.408C14.64 -8.408 17.136 -7.336 18.448 -5.192C19.792 -3.048 20.512 -0.440001 20.608 2.632L13.216 3.544C13.152 1.528 12.96 0.0879974 12.64 -0.776003C12.352 -1.672 11.696 -2.12 10.672 -2.12C9.936 -2.12 9.36 -1.8 8.944 -1.16C8.56 -0.552001 8.368 0.135999 8.368 0.903998C8.368 2.216 8.656 3.32 9.232 4.216C9.84 5.112 10.8 6.136 12.112 7.288L15.328 10.12C17.248 11.752 18.736 13.48 19.792 15.304C20.848 17.128 21.376 19.288 21.376 21.784C21.376 23.608 20.944 25.272 20.08 26.776C19.248 28.248 18.064 29.416 16.528 30.28C14.992 31.144 13.216 31.576 11.2 31.576ZM25.5843 -7.88H34.1763V31H25.5843V-7.88ZM43.4778 -1.496H37.6218V-7.88H57.9258V-1.496H52.1178V31H43.4778V-1.496ZM61.3488 -7.88H78.8208V-2.024H69.9408V7.624H76.7088V13.576H69.9408V25.192H78.9168V31H61.3488V-7.88ZM82.8175 -7.88H88.8655L96.8335 10.84V-7.88H103.938V31H98.1295L90.1615 10.84V31H82.8175V-7.88ZM115.196 -7.88H124.988L132.236 31H124.316L123.02 22.792H117.308L115.964 31H107.852L115.196 -7.88ZM122.204 17.656L120.14 2.488L118.076 17.656H122.204ZM136.689 -7.88H145.905L150.177 14.728L154.785 -7.88H163.665L164.337 31H158.241L157.521 5.128L153.009 31H147.585L142.785 4.936L142.209 31H136.017L136.689 -7.88ZM169.958 -7.88H187.43V-2.024H178.55V7.624H185.318V13.576H178.55V25.192H187.526V31H169.958V-7.88Z" fill="#EB3C00"/>
</svg>
